<svg width="25" height="25" viewBox="0 0 25 25" fill="none" xmlns="http://www.w3.org/2000/svg">
<path d="M20.6985 2.70752H4.19849C3.80066 2.70752 3.41913 2.86555 3.13783 3.14686C2.85652 3.42816 2.69849 3.80969 2.69849 4.20752V20.7075C2.69849 21.1053 2.85652 21.4869 3.13783 21.7682C3.41913 22.0495 3.80066 22.2075 4.19849 22.2075H20.6985C21.0963 22.2075 21.4778 22.0495 21.7591 21.7682C22.0405 21.4869 22.1985 21.1053 22.1985 20.7075V4.20752C22.1985 3.80969 22.0405 3.42816 21.7591 3.14686C21.4778 2.86555 21.0963 2.70752 20.6985 2.70752ZM20.6985 20.7075H4.19849V4.20752H20.6985V20.7075ZM9.44849 10.9575V16.9575C9.44849 17.1564 9.36947 17.3472 9.22882 17.4879C9.08816 17.6285 8.8974 17.7075 8.69849 17.7075C8.49957 17.7075 8.30881 17.6285 8.16816 17.4879C8.0275 17.3472 7.94849 17.1564 7.94849 16.9575V10.9575C7.94849 10.7586 8.0275 10.5678 8.16816 10.4272C8.30881 10.2865 8.49957 10.2075 8.69849 10.2075C8.8974 10.2075 9.08816 10.2865 9.22882 10.4272C9.36947 10.5678 9.44849 10.7586 9.44849 10.9575ZM17.6985 13.5825V16.9575C17.6985 17.1564 17.6195 17.3472 17.4788 17.4879C17.3382 17.6285 17.1474 17.7075 16.9485 17.7075C16.7496 17.7075 16.5588 17.6285 16.4182 17.4879C16.2775 17.3472 16.1985 17.1564 16.1985 16.9575V13.5825C16.1985 13.0852 16.0009 12.6083 15.6493 12.2567C15.2977 11.9051 14.8208 11.7075 14.3235 11.7075C13.8262 11.7075 13.3493 11.9051 12.9977 12.2567C12.646 12.6083 12.4485 13.0852 12.4485 13.5825V16.9575C12.4485 17.1564 12.3695 17.3472 12.2288 17.4879C12.0882 17.6285 11.8974 17.7075 11.6985 17.7075C11.4996 17.7075 11.3088 17.6285 11.1682 17.4879C11.0275 17.3472 10.9485 17.1564 10.9485 16.9575V10.9575C10.9494 10.7738 11.0177 10.5968 11.1405 10.4602C11.2633 10.3235 11.4319 10.2366 11.6145 10.216C11.797 10.1955 11.9808 10.2426 12.1309 10.3485C12.281 10.4544 12.387 10.6118 12.4288 10.7906C12.9362 10.4465 13.5277 10.247 14.1399 10.2136C14.7521 10.1803 15.3618 10.3143 15.9035 10.6013C16.4453 10.8883 16.8986 11.3175 17.2148 11.8427C17.5311 12.368 17.6983 12.9694 17.6985 13.5825ZM9.82349 8.33252C9.82349 8.55502 9.75751 8.77253 9.63389 8.95754C9.51027 9.14254 9.33457 9.28674 9.12901 9.37188C8.92344 9.45703 8.69724 9.47931 8.47901 9.4359C8.26078 9.39249 8.06033 9.28535 7.90299 9.12801C7.74566 8.97068 7.63851 8.77023 7.5951 8.552C7.55169 8.33377 7.57397 8.10757 7.65912 7.902C7.74427 7.69643 7.88846 7.52073 8.07347 7.39712C8.25848 7.2735 8.47598 7.20752 8.69849 7.20752C8.99685 7.20752 9.283 7.32605 9.49398 7.53702C9.70496 7.748 9.82349 8.03415 9.82349 8.33252Z" fill="black"/>
</svg>
