<svg width="25" height="25" viewBox="0 0 25 25" fill="none" xmlns="http://www.w3.org/2000/svg">
<path d="M12.5406 7.89038C11.6506 7.89038 10.7806 8.1543 10.0406 8.64877C9.30056 9.14323 8.72379 9.84604 8.38319 10.6683C8.0426 11.4906 7.95348 12.3954 8.12712 13.2683C8.30075 14.1412 8.72933 14.943 9.35867 15.5724C9.98801 16.2017 10.7898 16.6303 11.6627 16.8039C12.5357 16.9775 13.4405 16.8884 14.2627 16.5478C15.085 16.2072 15.7878 15.6305 16.2823 14.8904C16.7767 14.1504 17.0406 13.2804 17.0406 12.3904C17.0394 11.1973 16.5649 10.0534 15.7213 9.20977C14.8776 8.36613 13.7337 7.89162 12.5406 7.89038ZM12.5406 15.3904C11.9473 15.3904 11.3673 15.2144 10.8739 14.8848C10.3806 14.5551 9.99607 14.0866 9.76901 13.5384C9.54195 12.9903 9.48254 12.3871 9.59829 11.8051C9.71405 11.2232 9.99977 10.6886 10.4193 10.2691C10.8389 9.8495 11.3734 9.56378 11.9554 9.44802C12.5373 9.33227 13.1405 9.39168 13.6887 9.61874C14.2369 9.8458 14.7054 10.2303 15.0351 10.7237C15.3647 11.217 15.5406 11.797 15.5406 12.3904C15.5406 13.186 15.2246 13.9491 14.662 14.5117C14.0994 15.0743 13.3363 15.3904 12.5406 15.3904ZM17.0406 2.64038H8.04065C6.64872 2.64187 5.31423 3.19547 4.32998 4.17971C3.34574 5.16396 2.79214 6.49845 2.79065 7.89038V16.8904C2.79214 18.2823 3.34574 19.6168 4.32998 20.601C5.31423 21.5853 6.64872 22.1389 8.04065 22.1404H17.0406C18.4326 22.1389 19.7671 21.5853 20.7513 20.601C21.7356 19.6168 22.2892 18.2823 22.2906 16.8904V7.89038C22.2892 6.49845 21.7356 5.16396 20.7513 4.17971C19.7671 3.19547 18.4326 2.64187 17.0406 2.64038ZM20.7906 16.8904C20.7906 17.8849 20.3956 18.8388 19.6923 19.542C18.989 20.2453 18.0352 20.6404 17.0406 20.6404H8.04065C7.04609 20.6404 6.09226 20.2453 5.389 19.542C4.68574 18.8388 4.29065 17.8849 4.29065 16.8904V7.89038C4.29065 6.89582 4.68574 5.94199 5.389 5.23873C6.09226 4.53547 7.04609 4.14038 8.04065 4.14038H17.0406C18.0352 4.14038 18.989 4.53547 19.6923 5.23873C20.3956 5.94199 20.7906 6.89582 20.7906 7.89038V16.8904ZM18.5406 7.51538C18.5406 7.73788 18.4747 7.95539 18.3511 8.1404C18.2274 8.3254 18.0517 8.4696 17.8462 8.55475C17.6406 8.63989 17.4144 8.66217 17.1962 8.61876C16.9779 8.57536 16.7775 8.46821 16.6202 8.31088C16.4628 8.15354 16.3557 7.95309 16.3123 7.73486C16.2689 7.51663 16.2911 7.29043 16.3763 7.08486C16.4614 6.8793 16.6056 6.70359 16.7906 6.57998C16.9756 6.45636 17.1931 6.39038 17.4156 6.39038C17.714 6.39038 18.0002 6.50891 18.2111 6.71989C18.4221 6.93086 18.5406 7.21701 18.5406 7.51538Z" fill="black"/>
</svg>
